Coordinates

Units are S.I. units (second, meters, Newtons, ...)
If the header above contains a line with 'inDegrees', this indicates whether rotational values are in degrees (yes) or radians (no).

inDegrees=no
nColumns=21
nRows=12
DataType=double
version=3
OpenSimVersion=4.6-2026-03-31-d6972f9e6
endheader
time	/jointset/ground_pelvis/pelvis_tilt/value	/jointset/ground_pelvis/pelvis_list/value	/jointset/ground_pelvis/pelvis_rotation/value	/jointset/ground_pelvis/pelvis_tx/value	/jointset/ground_pelvis/pelvis_ty/value	/jointset/ground_pelvis/pelvis_tz/value	/jointset/hip_r/hip_flexion_r/value	/jointset/hip_r/hip_adduction_r/value	/jointset/hip_r/hip_rotation_r/value	/jointset/walker_knee_r/knee_angle_r/value	/jointset/patellofemoral_r/knee_angle_r_beta/value	/jointset/ankle_r/ankle_angle_r/value	/jointset/subtalar_r/subtalar_angle_r/value	/jointset/hip_l/hip_flexion_l/value	/jointset/hip_l/hip_adduction_l/value	/jointset/hip_l/hip_rotation_l/value	/jointset/walker_knee_l/knee_angle_l/value	/jointset/patellofemoral_l/knee_angle_l_beta/value	/jointset/ankle_l/ankle_angle_l/value	/jointset/subtalar_l/subtalar_angle_l/value
142.496	-0.103562754188459	0.02487393020634842	0.1286219654764416	1.196816160833572	0.9678094911959862	-0.288131498822787	-0.1954805974523192	0.05298575392591395	-0.08262627703812168	0.3698329559635837	0.3698329565513622	-0.3806636295376415	-0.3268922369473967	0.5393924168318993	0.04985926331741853	0.08363168427292474	0.5712361563509923	0.5712361572188693	-0.1190270939817103	-0.3144689652071562
142.5	-0.1044868024412432	0.02580158206015117	0.1329231843562606	1.198053855756238	0.9692982884396576	-0.2885521185912948	-0.2035513953452332	0.0523094554550689	-0.08885808803338471	0.3676935382280016	0.3676935388885644	-0.4097865042271476	-0.3243307182708818	0.5313061979610854	0.0544184791111989	0.08398705188956705	0.5228375884636	0.5228375893302529	-0.11260334342369	-0.2933739374309115
142.504	-0.1055411394282872	0.02600380852816868	0.1369428072247699	1.199216815324784	0.9705831819116165	-0.2889675086319564	-0.2102113230944613	0.05235816243747282	-0.09409136077584158	0.3678551323318023	0.367855133066549	-0.4367388309681958	-0.3213135247232074	0.5236372059267288	0.05821525053777433	0.08442376072487992	0.4763515258160773	0.4763515266706017	-0.1058586010587153	-0.2709230605744093
142.508	-0.1066911451182762	0.02552614386300455	0.1407040781827283	1.200294359551459	0.9716672243672417	-0.2893744976290914	-0.2154602051060029	0.05310063281452312	-0.09822918381672988	0.3704043273005825	0.3704043281066288	-0.4612998428664064	-0.3178024784457339	0.5164568428052304	0.06128954358481786	0.08486006038218749	0.4321208471407839	0.4321208479756504	-0.0989220898196486	-0.2473744264385953
142.512	-0.1078940233138351	0.02443334562420656	0.1442339786823449	1.201277000455314	0.9725559981666597	-0.2897701795145853	-0.2193184397697866	0.05448820269582001	-0.1012078354406725	0.3754052620808276	0.3754052629524358	-0.4832688887493909	-0.3137416586117518	0.5098156458335332	0.06369999796228518	0.08520855969165758	0.3904724956571607	0.3904724964674803	-0.09192523300587901	-0.2230167854615052
142.516	-0.1090996672452897	0.0228078648750365	0.1475625997845121	1.202156722072127	0.973257230722599	-0.2901519431999222	-0.2218270247584389	0.05645565913840426	-0.1029997432316127	0.3828978125710129	0.3828978135016938	-0.502469850536935	-0.3090589708344099	0.503742426924231	0.06552201801442883	0.08537973643439034	0.3517111606653003	0.3517111614484381	-0.0849959394075928	-0.1981601088171821
142.52	-0.1102519483870613	0.02074751372653887	0.1507223753054134	1.202927226522866	0.9737803210637173	-0.2905175012829657	-0.2230467928403937	0.05892266554224074	-0.1036150452084204	0.3928964126255821	0.3928964136104137	-0.5187553938280043	-0.3036688427515052	0.4982443078923219	0.06684508686610312	0.08528571379536976	0.3161133397896446	0.3161133405450015	-0.07825329363984314	-0.1731258388518714
142.524	-0.1112903075530897	0.01836243393207877	0.1537471859314938	1.203584130602289	0.9741358043171664	-0.2908649166932879	-0.2230569528866511	0.06179567900210323	-0.1031016311289593	0.4053895636713759	0.4053895647090259	-0.5320109359670272	-0.2974760999020457	0.4933075721962694	0.06776943103926622	0.08484410757517932	0.2839219732729778	0.2839219740015417	-0.07180281000004336	-0.1482372882519502
142.528	-0.1121515151846273	0.01577152645705465	0.1566713482560634	1.204125099296317	0.9743347842531974	-0.2911926255119289	-0.2219530540020032	0.0649702584680753	-0.1015436297452555	0.4203400720135641	0.4203400731075133	-0.5421582329794657	-0.2903809962150894	0.4888992207512006	0.06840221564637006	0.08398170726307407	0.2553418379095287	0.255341838613	-0.0657323244028326	-0.123810553017646
142.532	-0.1127715229295643	0.01309853398841062	0.1595285138585147	1.204549906269956	0.9743883616322431	-0.2914994545218554	-0.2198444448544871	0.06833363561399793	-0.09905839833910765	0.437686033720225	0.437686034878799	-0.5491584656731362	-0.2822852607424844	0.4849691508951591	0.0688534923201079	0.08263775953551042	0.2305358609740373	0.2305358616536831	-0.06010857636902833	-0.100146263422121
142.536	-0.1130874177816347	0.01046798117687902	0.1623505213576892	1.204860415564022	0.9743070808617075	-0.2917846327223093	-0.2168512202367754	0.07176740818511616	-0.09579214522018184	0.4573425637995367	0.4573425650346198	-0.5530146520393109	-0.2730988989345711	0.4814529319009944	0.06923215185891327	0.08076668874666318	0.2096224461113314	0.2096224467668887	-0.0549745629684727	-0.07752247955938171
142.54	-0.1130395262463241	0.008001160547280516	0.1651662620662505	1.205060482493368	0.9741004143316312	-0.292047796766959	-0.213100623967454	0.07515024143918575	-0.09191436755652316	0.4792042263110116	0.4792042276356605	-0.5537731818302591	-0.2627473979561061	0.4782751582353582	0.06964212305274586	0.07834017786215219	0.1926738397605386	0.1926738403894109	-0.05034774555190574	-0.05618898512739771
